<?xml version="1.0" standalone="no"?>
<!DOCTYPE svg PUBLIC "-//W3C//DTD SVG 20010904//EN"
 "http://www.w3.org/TR/2001/REC-SVG-20010904/DTD/svg10.dtd">
<svg version="1.0" xmlns="http://www.w3.org/2000/svg"
 width="512.000000pt" height="512.000000pt" viewBox="0 0 512.000000 512.000000"
 preserveAspectRatio="xMidYMid meet">

<g transform="translate(0.000000,512.000000) scale(0.100000,-0.100000)"
fill="#000000" stroke="none">
<path d="M3485 5109 c-334 -42 -618 -274 -813 -664 -27 -55 -53 -111 -57 -125
-4 -13 -60 -102 -123 -197 l-115 -173 -39 101 c-55 148 -99 238 -122 255 -53
37 -136 -4 -136 -66 0 -17 9 -49 21 -71 53 -104 153 -397 174 -512 7 -34 5
-37 -16 -37 -47 0 -69 12 -69 35 0 44 -30 64 -135 89 -221 54 -271 61 -470 61
-179 0 -196 -2 -290 -29 -496 -141 -868 -575 -990 -1156 -36 -171 -45 -460
-20 -630 116 -788 696 -1688 1236 -1921 179 -78 361 -88 594 -33 278 64 343
66 552 15 235 -57 425 -64 569 -20 571 175 1203 1104 1335 1964 19 119 16 419
-5 540 -34 202 -120 462 -173 525 -20 25 -32 30 -69 30 -42 0 -45 2 -79 56
-33 51 -34 57 -20 77 27 39 19 80 -30 140 -63 78 -177 180 -270 242 -327 217
-620 256 -1105 145 -69 -16 -147 -32 -175 -36 -55 -8 -105 -47 -105 -83 0 -18
-6 -21 -39 -21 l-38 0 -12 57 -11 56 52 81 c152 239 249 376 266 376 24 0 128
-51 310 -153 262 -146 426 -208 604 -226 208 -21 395 27 593 153 82 53 260
234 324 331 103 157 201 391 246 588 21 94 20 142 -5 167 -34 34 -62 34 -141
-1 -65 -29 -84 -33 -159 -32 -52 0 -141 11 -227 28 -157 31 -189 28 -212 -21
-25 -55 -4 -105 52 -123 81 -26 253 -54 369 -60 l128 -6 -34 -95 c-72 -208
-175 -379 -306 -511 -218 -219 -450 -288 -731 -218 -109 27 -199 66 -372 160
-213 116 -328 175 -356 182 l-23 6 42 78 c152 277 360 450 600 499 70 14 119
16 280 11 120 -3 202 -2 213 4 24 14 43 59 39 90 -6 52 -40 70 -149 79 -119
11 -264 10 -358 -1z m400 -2128 c76 -34 146 -124 186 -237 26 -74 36 -236 20
-314 -55 -262 -263 -346 -415 -168 -78 90 -116 210 -116 359 0 267 155 438
325 360z"/>
</g>
</svg>
